<?xml version="1.0" encoding="utf-8"?>
<!-- Generator: Adobe Illustrator 22.0.0, SVG Export Plug-In . SVG Version: 6.00 Build 0)  -->
<svg version="1.1" id="Layer_1" xmlns="http://www.w3.org/2000/svg" xmlns:xlink="http://www.w3.org/1999/xlink" x="0px" y="0px"
	 viewBox="0 0 510.8 124.9" style="enable-background:new 0 0 510.8 124.9;" xml:space="preserve">
<style type="text/css">
	.st0{fill:#4472B9;}
	.st1{fill:#FFFFFF;}
	.st2{fill:#373435;}
</style>
<g>
	<path class="st0" d="M108.8,30.3c21.4,21.4,21.4,56.5,0,78.5c-21.3,21.4-56.5,21.4-78.5,0C9,86.8,9,51.6,30.3,30.3
		C52.3,8.9,87.4,8.9,108.8,30.3L108.8,30.3z"/>
	<path class="st0" d="M25.4,4.1c5.5,5.5,5.5,15.2,0,20.7c-6.2,6.2-15.2,6.2-21.3,0c-5.5-5.5-5.5-15.2,0-20.7
		C10.3-1.4,19.2-1.4,25.4,4.1L25.4,4.1z"/>
	<path class="st1" d="M103.3,81.9c5.5,5.5,5.5,15.2,0,20.7c-6.2,6.2-15.2,6.2-21.3,0c-5.5-5.5-5.5-15.2,0-20.7
		C88.1,76.4,97.1,76.4,103.3,81.9L103.3,81.9z"/>
	<path class="st2" d="M413.2,108.8c-21.4,0-39.3-17.9-39.3-39.3c0-21.3,17.9-38.6,39.3-38.6c4.8,0,4.8,0,4.8,0c0-16.5,0-16.5,0-16.5
		c-4.8,0-4.8,0-4.8,0c-31,0-55.1,24.8-55.1,55.1s24.1,55.1,55.1,55.1c96.4,0,96.4,0,96.4,0c0-15.8,0-15.8,0-15.8L413.2,108.8
		L413.2,108.8z"/>
	<path class="st2" d="M333.3,69.5c6.9-6.2,11-14.5,11-23.4c0-17.2-14.5-31.7-31.7-31.7c-59.2,0-59.2,0-59.2,0c0,16.5,0,16.5,0,16.5
		c59.2,0,59.2,0,59.2,0c8.3,0,15.2,6.9,15.2,15.2s-6.2,15.2-14.5,15.2h-0.7c-42.7,0-42.7,0-42.7,0c0,16.5,0,16.5,0,16.5
		c42.7,0,42.7,0,42.7,0c1.4,0,1.4,0,1.4,0c7.6,0.7,13.8,7.6,13.8,15.2c0,9-6.9,15.8-15.2,15.8c-64.7,0-64.7,0-64.7,0
		c0,15.8,0,15.8,0,15.8c64.7,0,64.7,0,64.7,0c17.2,0,31.7-13.8,31.7-31.7C344.3,84,340.2,75.7,333.3,69.5L333.3,69.5z"/>
	<path class="st2" d="M203.1,14.4c-62,0-62,0-62,0c0,16.5,0,16.5,0,16.5c62,0,62,0,62,0c8.3,0,15.2,6.9,15.2,15.2
		s-6.9,15.2-15.2,15.2c-62,0-62,0-62,0c0,63.4,0,63.4,0,63.4c16.5,0,16.5,0,16.5,0s0-43.4,0-46.8c2.8,0,45.5,0,45.5,0
		c17.2,0,31.7-14.5,31.7-31.7C234.8,28.9,220.3,14.4,203.1,14.4L203.1,14.4z"/>
	<g>
		<path class="st0" d="M434.4,24.9l3.1,1c-0.5,1.7-1.3,3-2.4,3.8s-2.5,1.3-4.2,1.3c-2.1,0-3.8-0.7-5.2-2.1c-1.3-1.4-2-3.4-2-5.9
			c0-2.6,0.7-4.7,2-6.1c1.4-1.5,3.1-2.2,5.4-2.2c1.9,0,3.5,0.6,4.7,1.7c0.7,0.7,1.3,1.6,1.6,2.9l-3.2,0.8c-0.2-0.8-0.6-1.5-1.2-1.9
			c-0.6-0.5-1.3-0.7-2.2-0.7c-1.2,0-2.1,0.4-2.8,1.3s-1.1,2.2-1.1,4.1c0,2,0.4,3.4,1.1,4.3c0.7,0.8,1.7,1.3,2.8,1.3
			c0.8,0,1.6-0.3,2.2-0.8C433.7,26.9,434.1,26,434.4,24.9z"/>
		<path class="st0" d="M440.2,30.7V14.9h5.1c1.9,0,3.2,0.1,3.8,0.2c0.9,0.2,1.7,0.8,2.3,1.5c0.6,0.8,0.9,1.8,0.9,3.1
			c0,1-0.2,1.8-0.5,2.4c-0.4,0.7-0.8,1.2-1.3,1.6s-1.1,0.6-1.7,0.7c-0.8,0.2-1.9,0.2-3.3,0.2h-2.1v5.9h-3.2V30.7z M443.4,17.6v4.5
			h1.7c1.3,0,2.1-0.1,2.5-0.2c0.4-0.2,0.8-0.4,1-0.8s0.4-0.8,0.4-1.2c0-0.6-0.2-1-0.5-1.4s-0.8-0.6-1.3-0.7
			c-0.4-0.1-1.1-0.1-2.3-0.1h-1.5V17.6z"/>
		<path class="st0" d="M455,14.9h11.8v2.6h-8.6v3.7h4.3c1.2,0,2.2,0.1,2.9,0.4c0.8,0.3,1.4,0.8,2,1.6c0.5,0.8,0.8,1.7,0.8,2.7
			c0,1.1-0.3,2-0.8,2.7c-0.6,0.8-1.2,1.3-1.9,1.6c-0.7,0.3-1.7,0.4-3,0.4h-7.4L455,14.9L455,14.9z M458.1,28h3.1c1,0,1.7,0,2.1-0.1
			s0.8-0.3,1-0.7c0.3-0.3,0.4-0.8,0.4-1.3c0-0.7-0.3-1.3-0.8-1.6c-0.5-0.3-1.4-0.5-2.7-0.5H458V28H458.1z"/>
		<path class="st0" d="M470.8,14.9h3v10.5l6.4-10.5h3.2v15.8h-3V20.4L474,30.7h-3.2V14.9z"/>
		<path class="st0" d="M492.3,14.9h3.2v10c0,1.3-0.1,2.3-0.3,3c-0.3,0.9-0.9,1.7-1.7,2.2c-0.8,0.6-1.9,0.8-3.2,0.8
			c-1.6,0-2.8-0.4-3.6-1.3s-1.3-2.1-1.3-3.8l3-0.3c0,0.9,0.2,1.5,0.4,1.9c0.3,0.6,0.9,0.8,1.6,0.8c0.7,0,1.2-0.2,1.5-0.6
			s0.4-1.2,0.4-2.5L492.3,14.9L492.3,14.9z"/>
		<path class="st0" d="M498.8,30.7V14.9h11.7v2.7H502v3.5h7.9v2.7H502v4.3h8.8v2.7L498.8,30.7L498.8,30.7z"/>
	</g>
</g>
</svg>
