<?xml version="1.0" standalone="no"?>
<!DOCTYPE svg PUBLIC "-//W3C//DTD SVG 20010904//EN"
 "http://www.w3.org/TR/2001/REC-SVG-20010904/DTD/svg10.dtd">
<svg version="1.0" xmlns="http://www.w3.org/2000/svg"
 width="490.000000pt" height="489.000000pt" viewBox="0 0 490.000000 489.000000"
 preserveAspectRatio="xMidYMid meet">
<metadata>
Created by potrace 1.15, written by Peter Selinger 2001-2017
</metadata>
<g transform="translate(0.000000,489.000000) scale(0.100000,-0.100000)"
fill="#000000" stroke="none">
<path d="M2320 4614 c-458 -42 -876 -207 -1224 -482 -92 -72 -266 -247 -339
-339 -329 -415 -506 -950 -483 -1458 25 -572 248 -1087 641 -1481 130 -130
211 -196 372 -301 859 -560 2014 -438 2749 292 182 181 316 369 429 600 410
843 242 1855 -418 2519 -105 106 -254 233 -262 224 -3 -3 -229 -484 -328 -698
-14 -30 -43 -93 -65 -140 -305 -652 -383 -823 -391 -862 -26 -113 51 -230 169
-258 41 -10 58 -9 104 4 72 21 119 63 155 140 16 33 64 135 106 226 43 91 92
197 110 235 102 216 210 449 238 512 18 40 35 73 38 73 11 0 127 -205 166
-295 221 -499 201 -1075 -54 -1545 -254 -469 -682 -785 -1212 -897 -112 -24
-149 -27 -331 -27 -220 -1 -281 6 -465 54 -740 194 -1271 858 -1302 1626 -22
541 184 1024 596 1396 248 224 619 391 945 424 65 7 68 6 58 -12 -5 -10 -122
-257 -258 -549 -242 -518 -248 -531 -248 -595 -1 -54 4 -73 27 -113 41 -69 94
-101 178 -105 59 -4 74 -1 119 24 28 15 60 40 70 54 17 23 135 271 300 630 32
69 79 170 105 225 26 55 105 224 175 375 71 151 147 314 169 362 23 48 41 92
41 97 0 35 -494 82 -680 65z"/>
<path d="M1760 2680 c-13 -13 -18 -28 -15 -43 6 -24 69 -320 176 -827 39 -184
77 -345 85 -357 22 -34 50 -29 165 33 57 31 295 157 529 281 234 124 433 234
442 244 27 32 -1 79 -47 79 -11 0 -175 -83 -365 -184 l-345 -184 -57 55 c-72
68 -144 101 -239 111 l-74 7 -82 385 c-69 325 -85 388 -104 402 -28 23 -44 23
-69 -2z"/>
</g>
</svg>
