<?xml version="1.0" encoding="utf-8"?>
<!-- Generator: Adobe Illustrator 22.0.0, SVG Export Plug-In . SVG Version: 6.00 Build 0)  -->
<svg version="1.1" id="Layer_5" xmlns="http://www.w3.org/2000/svg" xmlns:xlink="http://www.w3.org/1999/xlink" x="0px" y="0px"
	 viewBox="0 0 512 512" style="enable-background:new 0 0 512 512;" xml:space="preserve">
<style type="text/css">
	.st0{display:none;}
	.st1{display:inline;fill:#1565C0;}
	.st2{display:inline;fill:#9575CD;}
	.st3{fill:#FFFFFF;}
</style>
<g class="st0">
	<polygon class="st1" points="255.3,214.8 148.2,321.9 82.3,256 189.4,149 148.2,107.8 0,256 148.2,404.2 296.4,256 	"/>
	<polygon class="st2" points="149.7,297.2 256.7,190.1 322.6,256 215.6,363 256.7,404.2 405,256 256.7,107.8 108.5,256 	"/>
	<polygon class="st1" points="363.8,107.8 322.6,149 429.7,256 322.6,363 363.8,404.2 512,256 	"/>
</g>
<g>
	<polygon class="st3" points="255.3,214.8 148.2,321.9 82.3,256 189.4,149 148.2,107.8 0,256 148.2,404.2 296.4,256 	"/>
	<polygon class="st3" points="149.7,297.2 256.7,190.1 322.6,256 215.6,363 256.7,404.2 405,256 256.7,107.8 108.5,256 	"/>
	<polygon class="st3" points="363.8,107.8 322.6,149 429.7,256 322.6,363 363.8,404.2 512,256 	"/>
</g>
</svg>
