<?xml version="1.0" standalone="no"?>
<!DOCTYPE svg PUBLIC "-//W3C//DTD SVG 20010904//EN"
 "http://www.w3.org/TR/2001/REC-SVG-20010904/DTD/svg10.dtd">
<svg version="1.0" xmlns="http://www.w3.org/2000/svg"
 width="1000.000000pt" height="455.000000pt" viewBox="0 0 1000.000000 455.000000"
 preserveAspectRatio="xMidYMid meet">

<g transform="translate(0.000000,455.000000) scale(0.100000,-0.100000)"
fill="#000000" stroke="none">
<path d="M2748 4000 c-205 -36 -363 -172 -434 -372 -13 -37 -94 -512 -359
-2098 -86 -513 -86 -516 -75 -586 51 -312 449 -449 683 -235 36 32 92 134 101
181 4 19 83 490 176 1045 107 637 168 1025 165 1050 -15 127 -65 209 -152 251
-130 62 -281 -3 -349 -151 -19 -41 -53 -224 -159 -856 -170 -1012 -159 -941
-152 -971 10 -37 59 -56 91 -34 14 8 27 23 30 33 3 10 30 167 60 348 254 1519
241 1454 302 1499 39 28 93 31 132 6 42 -26 62 -73 62 -145 0 -31 -54 -378
-120 -773 -67 -394 -141 -838 -166 -987 -54 -326 -62 -351 -119 -404 -53 -49
-107 -65 -200 -59 -85 6 -136 30 -192 91 -65 70 -77 147 -48 317 240 1444 399
2376 410 2415 41 145 136 245 274 290 82 27 217 18 296 -20 141 -68 224 -200
225 -359 1 -34 -79 -542 -182 -1159 l-183 -1099 29 -24 c34 -30 62 -28 87 6
27 37 379 2143 379 2268 0 296 -203 514 -500 536 -36 2 -86 1 -112 -4z"/>
<path d="M3580 2816 c-102 -29 -168 -77 -220 -158 -117 -180 -83 -484 70 -621
70 -63 129 -82 260 -82 92 0 112 3 162 27 68 32 129 92 162 161 43 91 43 93
-8 106 -67 17 -70 15 -89 -40 -71 -199 -370 -211 -467 -19 -54 106 -53 300 3
405 19 37 72 88 114 109 47 23 133 31 194 16 61 -15 129 -75 148 -132 l12 -35
51 12 c29 6 53 16 55 22 7 19 -45 110 -84 149 -58 58 -133 87 -233 91 -49 1
-104 -3 -130 -11z"/>
<path d="M1120 2390 l0 -430 60 0 60 0 0 380 0 380 220 0 220 0 0 -380 0 -380
60 0 60 0 0 430 0 430 -340 0 -340 0 0 -430z"/>
<path d="M4397 2808 c-28 -70 -327 -841 -327 -844 0 -3 27 -4 61 -2 l61 3 47
130 47 130 176 3 175 2 52 -135 53 -135 64 0 c35 0 64 2 64 4 0 3 -219 537
-322 784 l-30 72 -58 0 c-37 0 -60 -5 -63 -12z m131 -293 l68 -180 -129 -3
c-71 -1 -132 -1 -134 2 -3 2 20 71 50 153 31 81 59 166 63 188 4 22 9 36 11
30 2 -5 34 -91 71 -190z"/>
<path d="M4960 2391 l0 -431 60 0 60 0 0 174 0 174 173 4 c168 3 173 4 232 33
49 24 66 40 91 83 83 139 37 307 -101 369 -34 15 -76 18 -277 21 l-238 4 0
-431z m477 303 c87 -64 80 -214 -13 -260 -32 -15 -66 -19 -191 -22 l-153 -4 0
157 0 157 164 -4 c148 -3 167 -5 193 -24z"/>
<path d="M5770 2390 l0 -430 55 0 55 0 0 205 0 205 220 0 220 0 0 -27 c1 -16
0 -108 0 -205 l-1 -178 61 0 60 0 0 430 0 430 -55 0 -55 0 0 -114 c0 -62 -3
-141 -6 -175 l-7 -61 -218 0 -219 0 0 175 0 175 -55 0 -55 0 0 -430z"/>
<path d="M6620 2390 l0 -430 60 0 59 0 223 331 223 331 3 -331 2 -331 55 0 55
0 0 430 0 430 -58 0 -58 0 -224 -334 -225 -333 -3 333 -2 334 -55 0 -55 0 0
-430z"/>
<path d="M7490 2390 l0 -430 328 -2 327 -3 3 -117 3 -118 49 0 50 0 0 170 0
170 -40 0 -40 0 0 380 0 380 -60 0 -60 0 0 -380 0 -380 -220 0 -220 0 0 380 0
380 -60 0 -60 0 0 -430z"/>
<path d="M8603 2803 c-4 -10 -78 -201 -165 -426 -87 -224 -158 -410 -158 -413
0 -3 27 -4 61 -2 l61 3 47 130 47 130 176 3 175 2 50 -132 51 -133 67 -3 c60
-3 66 -1 61 15 -3 10 -82 203 -175 428 l-170 410 -61 3 c-51 2 -61 0 -67 -15z
m140 -300 l64 -173 -134 0 c-124 0 -135 1 -130 18 3 9 30 85 61 169 31 84 56
163 57 175 0 22 1 22 9 3 5 -11 38 -98 73 -192z"/>
</g>
</svg>
