<?xml version="1.0" encoding="utf-8"?>
<!-- Generator: Adobe Illustrator 22.0.0, SVG Export Plug-In . SVG Version: 6.00 Build 0)  -->
<svg version="1.1" id="Layer_1" xmlns="http://www.w3.org/2000/svg" xmlns:xlink="http://www.w3.org/1999/xlink" x="0px" y="0px"
	 viewBox="0 0 512 512" style="enable-background:new 0 0 512 512;" xml:space="preserve">
<style type="text/css">
	.st0{fill:#1565C0;}
	.st1{fill:#C8CCDA;}
</style>
<path class="st0" d="M302.7,492.7c-130.4,0-236.2-105.7-236.2-236.2c0-130.4,105.7-236.2,236.2-236.2C373,20.3,436,51,479.3,99.7
	C433,39.3,360.8,0.5,279.6,0.5c-139.6,0-252.7,114.6-252.7,256s113.1,256,252.7,256c81.2,0,153.4-38.8,199.6-99.2
	C436,462,373,492.7,302.7,492.7z"/>
<path class="st1" d="M307.8,73c-106.7,0-193.2,85.4-193.2,190.8c0,67.4,26.4,104.9,66.1,141.2c-23.1-33-42.9-62.7-42.9-118.9
	c0-96.7,76.2-175.1,170.1-175.1S478,189.4,478,286.1c0,56.2-16.5,79.3-42.9,118.9c39.6-33,66.1-73.8,66.1-141.2
	C501.1,158.4,414.6,73,307.8,73z"/>
<path class="st0" d="M319.4,147.3c-41.5,0-78.4,20.5-101.2,52c19.9-17.9,46.8-28.9,76.4-28.9c61.1,0,110.7,46.6,110.7,104.1
	s-49.5,104.1-110.7,104.1c-29.7,0-56.6-11-76.4-28.9c22.8,31.5,59.7,52,101.2,52c69.3,0,125.5-56.9,125.5-127.2
	C444.9,204.3,388.7,147.3,319.4,147.3z"/>
<polygon class="st1" points="367.1,235.6 342.2,210.7 277,276 251.8,250.7 226.9,275.6 277,325.7 277,325.6 277.1,325.7 "/>
</svg>
