<?xml version="1.0" encoding="utf-8"?>
<!-- Generator: Adobe Illustrator 22.0.0, SVG Export Plug-In . SVG Version: 6.00 Build 0)  -->
<svg version="1.1" id="Layer_1" xmlns="http://www.w3.org/2000/svg" xmlns:xlink="http://www.w3.org/1999/xlink" x="0px" y="0px"
	 viewBox="0 0 512 512" style="enable-background:new 0 0 512 512;" xml:space="preserve">
<style type="text/css">
	.st0{fill:#1565C0;}
	.st1{fill:#C8CCDA;}
	.st2{display:none;}
	.st3{display:inline;fill:none;}
	.st4{display:inline;fill:#A7A8AA;}
	.st5{font-family:'Tahoma-Bold';}
	.st6{font-size:30.6256px;}
	.st7{display:inline;fill:#231F20;}
	.st8{display:none;fill:#231F20;}
	.st9{fill:#A5AAB5;}
</style>
<g>
	<path class="st0" d="M295.8,457.5C180,461,113.1,361.3,99.3,299.2c-2.3-10.2-4.6-23.3-4.6-42.9C94.7,166.7,167.3,94,257,94
		c68.4,0,127,42.4,150.9,102.3c6.9,17.4,12.7,35,13.1,54.8c-0.6-27.6-7.2-44.5-12-59c-23-70-88.9-127.1-159-135
		c-80-9-149,19-194.7,81.3C32.7,169.1,18.5,208,17.1,249.5c-0.1,2.2-0.1,4.5-0.1,6.8c0,132.5,107.5,240,240,240
		c132.5,0,240-107.5,240-240C497,367.4,406.9,454.1,295.8,457.5z"/>
	<path class="st1" d="M218.2,55.2c115.8-3.5,182.8,96.2,196.6,158.3c2.3,10.2,4.6,23.3,4.6,42.9c0,89.7-72.7,162.3-162.3,162.3
		c-68.4,0-127-42.4-150.9-102.3C99.2,299,95.5,282.7,95,263c0.6,27.6,5.2,43.1,10,57.7c23,70,88.9,127.1,159,135
		c80,9,149-19,194.7-81.3c22.6-30.8,36.8-69.8,38.2-111.3c0.1-2.2,0.1-4.5,0.1-6.8c0-132.5-107.5-240-240-240
		c-132.5,0-240,107.5-240,240C17,145.3,107.1,58.6,218.2,55.2z"/>
</g>
<g class="st2">
	<rect x="139.8" y="199" class="st3" width="236.4" height="33.1"/>
	<text transform="matrix(1 0 0 1 139.7919 225.4473)" class="st4 st5 st6">СТАТИСТИЧКИ</text>
	<rect x="165.8" y="240.8" class="st3" width="184.4" height="33.1"/>
	<text transform="matrix(1 0 0 1 165.8212 267.2422)" class="st7 st5 st6">ПОСЛОВНИ</text>
	<rect x="177.6" y="281.9" class="st3" width="160.8" height="33.1"/>
	<text transform="matrix(1 0 0 1 177.6122 308.3926)" class="st4 st5 st6">РЕГИСТАР</text>
</g>
<circle class="st8" cx="258" cy="254.5" r="163"/>
<g>
	<g id="path3160-69_2_">
		<path class="st9" d="M259,383C189,383,132,326,132,256c0-34,13.2-65.8,37.2-89.8c24-24,55.9-37.2,89.8-37.2c0,0,0,0,0,0
			c35.3,0,68.1,14.1,92.3,39.8c0.8,0.8,0.7,2-0.1,2.8c-0.8,0.8-2,0.7-2.8-0.1C325,146.7,293.2,133,259,133c0,0,0,0,0,0
			c-32.9,0-63.8,12.8-87,36c-23.2,23.2-36,54.1-36,87c0,67.9,55.2,123,123,123c0,0,0,0,0,0c32.9,0,63.8-12.8,87-36
			c23.2-23.2,36-54.1,36-87c0-22.2-6-43.9-17.2-62.8c-0.6-0.9-0.3-2.2,0.7-2.7c0.9-0.6,2.2-0.3,2.7,0.7
			c11.6,19.5,17.8,41.9,17.8,64.8c0,34-13.2,65.8-37.2,89.8C324.8,369.8,292.9,383,259,383C259,383,259,383,259,383z"/>
	</g>
	<path class="st0" d="M171.9,241.7c41.1,6.3,70.7,36,70.7,36S301.3,180.9,425,151c-116.9,48.2-158.6,123.3-182.8,194
		C228,273.7,193.7,259.4,171.9,241.7z"/>
</g>
</svg>
