<?xml version="1.0" encoding="utf-8"?>
<!-- Generator: Adobe Illustrator 22.0.0, SVG Export Plug-In . SVG Version: 6.00 Build 0)  -->
<svg version="1.1" id="_x34_204fb5f-c038-4258-8d62-d764c57d07f2"
	 xmlns="http://www.w3.org/2000/svg" xmlns:xlink="http://www.w3.org/1999/xlink" x="0px" y="0px" viewBox="0 0 138.7 155"
	 style="enable-background:new 0 0 138.7 155;" xml:space="preserve">
<style type="text/css">
	.st0{fill:#1565C0;}
	.st1{fill:#C8CCDA;}
</style>
<title>SPRLogo</title>
<g id="_x38_d1a7ae7-5408-4207-ab41-919ca71da2af">
	<path class="st0" d="M83.5,149C44,149,12,117,12,77.5C12,38,44,6,83.5,6c20.4,0,39.9,8.7,53.4,24C122.6,11.1,100.2,0,76.5,0
		C34.3,0,0,34.7,0,77.5S34.3,155,76.5,155c23.7,0,46.1-11.1,60.4-30C123.4,140.3,103.9,149,83.5,149z"/>
	<path class="st1" d="M41.7,116.5c-8.7-7-14.9-16.7-17.8-27.5c-0.7-2.8-1.2-5.6-1.5-8.4c-0.3-2.9-0.3-5.7-0.2-8.6
		c0.1-1.4,0.3-2.9,0.4-4.3c0.1-0.7,0.2-1.4,0.3-2.1l0.4-2.1l0.5-2.1c0.1-0.7,0.3-1.4,0.5-2.1l1.3-4.1c2.1-5.5,4.9-10.6,8.5-15.3
		c3.7-4.6,7.9-8.7,12.7-12.1c4.9-3.3,10.2-6,15.9-7.8c5.7-1.7,11.6-2.6,17.5-2.7c1.5,0,3,0.1,4.4,0.2c0.7,0.1,1.5,0.1,2.2,0.1
		l2.2,0.3l2.2,0.3c0.7,0.1,1.5,0.2,2.2,0.4l4.3,1.1c0.7,0.2,1.4,0.4,2.1,0.7l2.1,0.8l2.1,0.8l2,1l2,1c0.7,0.3,1.4,0.7,2,1.1
		c1.3,0.8,2.5,1.6,3.8,2.4c4.8,3.4,9.1,7.4,12.9,12c3.6,4.6,6.5,9.8,8.6,15.2c2,5.4,3.2,11.1,3.6,16.9v4.3c0,0.7,0,1.4,0,2.1
		l-0.2,2.1c-0.3,2.8-0.8,5.6-1.5,8.4c-2.7,10.9-8.9,20.5-17.5,27.7c6.6-8.3,10.8-18.2,12.1-28.7c0.3-2.5,0.4-5.1,0.4-7.6l-0.1-1.9
		c0-0.6-0.1-1.3-0.2-1.9l-0.4-3.8c-0.9-4.9-2.4-9.7-4.4-14.3c-2.2-4.4-4.9-8.6-8.1-12.3c-3.3-3.6-7-6.8-11.1-9.5
		c-8.2-5.2-17.8-8-27.6-7.9c-4.8,0.1-9.7,0.8-14.3,2.1c-4.6,1.5-9.1,3.5-13.2,6.1c-4.1,2.7-7.8,5.9-11,9.6l-2.3,2.9
		c-0.2,0.2-0.4,0.5-0.6,0.7l-0.5,0.8l-1,1.5l-1,1.5c-0.3,0.5-0.6,1.1-0.9,1.6c-0.6,1.1-1.2,2.2-1.7,3.3c-2,4.6-3.5,9.4-4.3,14.3
		c-0.3,2.5-0.6,5-0.6,7.6c0,2.6,0.2,5.1,0.5,7.6C30.8,98.4,35,108.3,41.7,116.5z"/>
	<path class="st0" d="M54.4,54.1c0,0,0.4-0.6,1.1-1.6c1.1-1.5,2.3-2.9,3.7-4.2c2.1-2,4.5-3.8,7.1-5.2c3.5-1.9,7.2-3.2,11.1-3.8
		c1.1-0.2,2.2-0.3,3.3-0.4l3.4-0.1c0.6,0,1.2,0,1.8,0.1l1.9,0.2c0.3,0,0.7,0.1,1,0.1l0.9,0.2l1.9,0.4c5.3,1.2,10.3,3.5,14.7,6.8
		c1.1,0.9,2.2,1.8,3.3,2.8l1.5,1.6c0.5,0.5,1,1.1,1.5,1.6c0.9,1.1,1.8,2.3,2.6,3.6l1.2,1.9c0.4,0.6,0.7,1.3,1,2s0.7,1.4,1,2.1
		l0.8,2.1c0.5,1.4,1,2.9,1.3,4.4c0.2,0.7,0.4,1.5,0.4,2.3l0.4,2.3c0.1,0.8,0.1,1.5,0.2,2.3l0.1,1.1v0.6v0.9l-0.1,2l-0.1,1v0.5
		c0,0.2-0.1,0.4-0.1,0.6l-0.4,2.4l-0.2,1.2c-0.1,0.4-0.2,0.8-0.3,1.1c-0.3,1.5-0.8,3-1.3,4.4l-0.8,2.1c-0.3,0.7-0.7,1.4-1,2
		c-1.3,2.7-3,5.2-4.9,7.5c-0.9,1.1-2,2.1-3,3.2s-2.2,1.9-3.3,2.8c-4.4,3.3-9.4,5.6-14.7,6.8c-2.4,0.5-4.9,0.8-7.4,0.9h-1.8h-0.9
		h-0.9l-1.5-0.2c-0.5-0.1-1.1-0.2-1.7-0.3c-3.9-0.7-7.7-2-11.1-3.9c-2.6-1.4-5-3.2-7.1-5.3c-1.3-1.3-2.6-2.7-3.6-4.2
		c-0.7-1-1.1-1.6-1.1-1.6l1.5,1.2c1.5,1,3,2,4.6,2.8c2.4,1.3,4.9,2.3,7.5,3.1c1.5,0.4,3.1,0.8,4.7,1c1.7,0.3,3.5,0.4,5.2,0.4h1.3
		l1.5-0.1l2.8-0.4c1.9-0.3,3.9-0.8,5.7-1.5c3.9-1.4,7.6-3.6,10.7-6.4c3.3-2.9,5.9-6.5,7.7-10.5c0.2-0.5,0.5-1,0.7-1.5l0.5-1.6
		c0.4-1.1,0.7-2.1,0.9-3.2c0.1-0.3,0.1-0.5,0.2-0.8l0.1-0.8l0.2-1.5c0-0.1,0-0.2,0.1-0.4v-0.5v-1l0.1-2c0,0.1,0-0.3,0,0.2v-0.4v-0.4
		v-0.8c0-0.6,0-1.1-0.1-1.7l-0.3-1.7c-0.1-0.6-0.2-1.1-0.3-1.6c-0.2-1.1-0.5-2.2-0.9-3.2l-0.5-1.6c-0.2-0.5-0.4-1-0.7-1.5
		s-0.4-1-0.7-1.5s-0.6-1-0.8-1.4c-0.5-1-1.1-1.9-1.8-2.8c-0.3-0.5-0.6-0.9-1-1.3l-1-1.3c-0.8-0.8-1.5-1.5-2.3-2.3
		c-3.1-2.8-6.8-5-10.7-6.4L88,47.2l-0.7-0.2c-0.2-0.1-0.4-0.1-0.7-0.2l-1.3-0.3c-0.5-0.1-0.9-0.2-1.4-0.3l-1.6-0.2l-0.8-0.1L81,45.8
		h-0.2h-0.1c-0.2,0,0.2,0,0.1,0l0,0c-0.9-0.1-1.9-0.1-2.8-0.1c-1.8,0-3.5,0.1-5.3,0.4c-1.6,0.2-3.3,0.5-4.8,1
		c-2.6,0.7-5.1,1.7-7.5,3c-1.6,0.9-3.1,1.9-4.5,2.9L54.4,54.1z"/>
</g>
</svg>
