<?xml version="1.0" encoding="utf-8"?>
<!-- Generator: Adobe Illustrator 22.0.0, SVG Export Plug-In . SVG Version: 6.00 Build 0)  -->
<svg version="1.1" id="Layer_1" xmlns="http://www.w3.org/2000/svg" xmlns:xlink="http://www.w3.org/1999/xlink" x="0px" y="0px"
	 viewBox="0 0 512 512" style="enable-background:new 0 0 512 512;" xml:space="preserve">
<style type="text/css">
	.st0{fill:#1565C0;}
	.st1{display:none;fill:#1565C0;}
</style>
<g>
	<path class="st0" d="M311.4,193c-12.3,3.6-24.2,7.8-34.8,15.2c-14.4,10.1-24.9,23.3-33,38.8c-9.9,19.2-14.5,39.9-18.6,60.9
		c-5.7,29.1-15,56.7-35.2,79.4c-17.8,20-40.4,30.3-67,32c-17.8,1.1-35.2-0.8-51.7-7.9c-38.4-16.6-62-45.4-69.4-86.5
		c-3.4-19-1.7-37.9,5-56.4c13.5-37,39.2-60.9,76.5-71.6c33.9-9.7,65.8-3.5,95.2,15.8c3.9,2.6,4.5,4.4,1.2,8.7
		c-9.3,11.8-16.2,25.2-20.9,39.5c-1.4,4.3-2.7,4.1-5.7,1.3c-10.7-9.8-23.3-15-37.8-15.1C89,247,70,259.2,59.3,282.9
		c-9.6,21.3-5.4,48.1,12.9,65.7c13.7,13.2,30.5,18.9,49.2,16.4c15.2-2,26.7-10.9,35.4-23.5c10.7-15.5,15-33.4,20.5-51
		c7.9-25.3,16.8-50.2,33.8-71c10.6-13,24.5-21.6,40.6-26c18.3-5,37-5.9,55.8-2.2C308.9,191.6,310.3,191.6,311.4,193z"/>
	<path class="st0" d="M182.2,424.5c12.3-3.6,24.2-7.8,34.8-15.2c14.4-10.1,24.9-23.3,33-38.8c9.9-19.2,14.5-39.9,18.6-60.9
		c5.7-29.1,15-56.7,35.2-79.4c17.8-20,40.4-30.3,67-32c17.8-1.1,35.2,0.8,51.7,7.9c38.4,16.6,62,45.4,69.4,86.5
		c3.4,19,1.7,37.9-5,56.4c-13.5,37-39.2,60.9-76.5,71.6c-33.9,9.7-65.8,3.5-95.2-15.8c-3.9-2.6-4.5-4.4-1.2-8.7
		c9.3-11.8,16.2-25.2,20.9-39.5c1.4-4.3,2.7-4.1,5.7-1.3c10.7,9.8,23.3,15,37.8,15.1c26.3,0.1,45.2-12.1,55.9-35.8
		c9.6-21.3,5.4-48.1-12.9-65.7c-13.7-13.2-30.5-18.9-49.2-16.4c-15.2,2-26.7,10.9-35.4,23.5c-10.7,15.5-15,33.4-20.5,51
		c-7.9,25.3-16.8,50.2-33.8,71c-10.6,13-24.5,21.6-40.6,26c-18.3,5-37,5.9-55.8,2.2C184.7,425.9,183.3,425.9,182.2,424.5z"/>
	<path class="st0" d="M215.8,116c10,8.1,20.2,15.5,32.4,19.9c16.5,6.1,33.4,7.2,50.7,5c21.4-2.8,41-10.9,60.6-19.5
		c27.2-11.9,55.2-20,85.3-16.4c26.6,3.2,48,15.9,64.5,36.8c11.1,14-31.1,46.1-43.8,32.2c-10.3-11.3-24.1-15.7-39.5-15.7
		c-18.8,0.1-36,6.7-53.6,12.2c-25.3,7.9-50.8,14.8-77.6,12.7c-16.8-1.3-31.7-7.8-44.5-18.5c-14.6-12.2-26-27-33.6-44.6
		C216.1,118.9,215.3,117.8,215.8,116z"/>
	<path class="st1" d="M275.7,178.6h160.9l75.4,0.1l0-49.5h-75.3l-164.4-0.2c0,0-86.6,1.6-109.5-45.4
		C163.5,106.4,170.8,178.6,275.7,178.6z"/>
</g>
</svg>
